<?xml version="1.0" encoding="UTF-8"?>
<svg id="Layer_2" data-name="Layer 2" xmlns="http://www.w3.org/2000/svg" viewBox="0 0 1546.89 199.45">
  <defs>
    <style>
      .cls-1 {
        fill: #ffffff;
        stroke: #ffffff;
        stroke-miterlimit: 10;
        stroke-width: 10px;
      }
    </style>
  </defs>
  <g id="Layer_2-2" data-name="Layer 2">
    <g>
      <path d="M480.1,194.45v-118.41h23.35v36.73h3.29v81.68h-26.64ZM551.48,194.45v-71.6c0-8.26-2.01-14.69-6.03-19.3-4.02-4.6-9.5-6.91-16.45-6.91s-12.12,2.3-16.17,6.91c-4.06,4.61-6.09,10.6-6.09,17.98l-11.84-7.89c0-7.67,1.9-14.58,5.7-20.72,3.8-6.14,8.94-10.98,15.4-14.53,6.47-3.54,13.72-5.32,21.76-5.32,8.84,0,16.24,1.88,22.2,5.65,5.96,3.77,10.42,8.88,13.38,15.35s4.44,13.76,4.44,21.87v78.5h-26.31ZM622.53,194.45v-71.92c0-8.11-2.01-14.45-6.03-19.02-4.02-4.57-9.47-6.85-16.34-6.85-4.24,0-8.04.97-11.4,2.91-3.36,1.94-6.03,4.79-8,8.55-1.97,3.76-2.96,8.24-2.96,13.43l-11.73-6.91c-.07-8.19,1.77-15.4,5.54-21.65,3.76-6.25,8.86-11.13,15.29-14.64,6.43-3.51,13.6-5.26,21.49-5.26,13.08,0,23.12,3.93,30.1,11.79,6.98,7.86,10.47,18.18,10.47,30.97v78.61h-26.42Z"/>
      <path d="M670.88,58.05v-24.23h26.42v24.23h-26.42ZM670.88,194.45v-118.41h26.42v118.41h-26.42Z"/>
      <path d="M721.2,194.45v-118.41h23.57v36.73h3.18v81.68h-26.75ZM803.32,194.45v-57.01c0-3.73-.26-7.86-.77-12.39-.51-4.53-1.7-8.9-3.56-13.1-1.86-4.2-4.64-7.66-8.33-10.36-3.69-2.7-8.68-4.06-14.97-4.06-3.36,0-6.69.55-9.98,1.64-3.29,1.1-6.27,2.98-8.94,5.65-2.67,2.67-4.81,6.32-6.41,10.96-1.61,4.64-2.41,10.58-2.41,17.82l-15.68-6.69c0-10.09,1.95-19.22,5.87-27.41,3.91-8.19,9.67-14.71,17.27-19.57,7.6-4.86,16.96-7.29,28.07-7.29,8.77,0,16.01,1.46,21.71,4.38,5.7,2.92,10.23,6.65,13.6,11.18,3.36,4.53,5.85,9.36,7.46,14.47,1.61,5.12,2.65,9.96,3.12,14.53.47,4.57.71,8.28.71,11.13v66.11h-26.75Z"/>
      <path d="M884.67,194.45V36.56h26.64v74.78h-3.29v83.11h-23.35ZM941.79,197.74c-11.55,0-21.23-2.74-29.06-8.22-7.82-5.48-13.71-12.96-17.65-22.42-3.95-9.46-5.92-20.08-5.92-31.85s1.97-22.59,5.92-32.01c3.95-9.43,9.74-16.87,17.38-22.31,7.64-5.44,17.08-8.17,28.34-8.17s20.89,2.72,29.11,8.17c8.22,5.45,14.6,12.87,19.13,22.26,4.53,9.39,6.8,20.08,6.8,32.07s-2.23,22.48-6.69,31.91c-4.46,9.43-10.74,16.88-18.86,22.37-8.11,5.48-17.62,8.22-28.51,8.22ZM937.73,174.05c6.87,0,12.53-1.72,16.99-5.15,4.46-3.44,7.77-8.09,9.92-13.98,2.16-5.88,3.23-12.44,3.23-19.68s-1.1-13.69-3.29-19.57c-2.19-5.88-5.59-10.56-10.2-14.03s-10.45-5.21-17.54-5.21-12.21,1.63-16.45,4.88c-4.24,3.25-7.36,7.78-9.37,13.6-2.01,5.81-3.02,12.59-3.02,20.34s1,14.44,3.02,20.28c2.01,5.85,5.19,10.4,9.54,13.65,4.35,3.25,10.07,4.88,17.16,4.88Z"/>
      <path d="M1065.03,197.74c-11.99,0-22.51-2.6-31.58-7.78-9.06-5.19-16.14-12.39-21.22-21.6-5.08-9.21-7.62-19.81-7.62-31.8,0-12.94,2.48-24.18,7.46-33.71,4.97-9.54,11.88-16.94,20.72-22.2,8.84-5.26,19.08-7.89,30.7-7.89,12.28,0,22.71,2.87,31.3,8.61,8.59,5.74,14.97,13.83,19.13,24.29,4.17,10.45,5.74,22.77,4.71,36.95h-26.2v-9.65c-.07-12.86-2.34-22.26-6.8-28.18-4.46-5.92-11.48-8.88-21.05-8.88-10.82,0-18.86,3.34-24.12,10.03-5.26,6.69-7.89,16.46-7.89,29.33,0,11.99,2.63,21.27,7.89,27.85,5.26,6.58,12.94,9.87,23.02,9.87,6.5,0,12.12-1.44,16.83-4.33,4.71-2.89,8.35-7.07,10.91-12.55l26.09,7.89c-4.53,10.67-11.53,18.97-21,24.89-9.47,5.92-19.9,8.88-31.3,8.88ZM1024.24,142.59v-19.95h81.46v19.95h-81.46Z"/>
      <path d="M1181.9,197.74c-10.89,0-20.39-2.74-28.51-8.22-8.11-5.48-14.4-12.94-18.86-22.37-4.46-9.43-6.69-20.06-6.69-31.91s2.25-22.68,6.74-32.07c4.5-9.39,10.87-16.81,19.13-22.26,8.26-5.44,17.98-8.17,29.16-8.17s20.7,2.72,28.34,8.17c7.64,5.45,13.43,12.88,17.38,22.31,3.95,9.43,5.92,20.1,5.92,32.01s-1.97,22.39-5.92,31.85c-3.95,9.47-9.83,16.94-17.65,22.42-7.82,5.48-17.51,8.22-29.05,8.22ZM1185.96,174.05c7.09,0,12.81-1.62,17.16-4.88,4.35-3.25,7.53-7.8,9.54-13.65,2.01-5.85,3.02-12.61,3.02-20.28s-1.01-14.53-3.02-20.34c-2.01-5.81-5.14-10.34-9.37-13.6-4.24-3.25-9.72-4.88-16.45-4.88-7.09,0-12.94,1.74-17.54,5.21s-8,8.15-10.2,14.03c-2.19,5.88-3.29,12.41-3.29,19.57s1.08,13.8,3.23,19.68c2.16,5.88,5.46,10.54,9.92,13.98,4.46,3.44,10.12,5.15,16.99,5.15ZM1215.67,194.45v-83.11h-3.29V36.56h26.64v157.88h-23.35Z"/>
      <path d="M1260.95,194.45v-118.41h23.35v28.84l-2.85-3.73c1.46-3.95,3.42-7.55,5.87-10.8,2.45-3.25,5.39-5.94,8.83-8.06,2.92-1.97,6.16-3.53,9.7-4.66,3.54-1.13,7.18-1.83,10.91-2.08,3.73-.26,7.35-.09,10.85.49v24.67c-3.51-1.02-7.55-1.35-12.12-.99-4.57.37-8.68,1.64-12.33,3.84-3.66,1.97-6.63,4.5-8.94,7.57-2.3,3.07-4,6.56-5.1,10.47-1.1,3.91-1.64,8.13-1.64,12.66v60.19h-26.53Z"/>
      <path d="M1341.86,58.05v-24.23h26.42v24.23h-26.42ZM1341.86,194.45v-118.41h26.42v118.41h-26.42Z"/>
      <path d="M1383.63,96.76v-20.72h74.12v20.72h-74.12ZM1402.71,194.45v-120.28c0-3,.11-6.3.33-9.92s.84-7.22,1.86-10.8c1.02-3.58,2.89-6.83,5.59-9.76,3.36-3.73,7-6.3,10.91-7.73,3.91-1.43,7.77-2.23,11.57-2.41,3.8-.18,7.13-.27,9.98-.27h14.8v21.49h-13.71c-5.04,0-8.79,1.26-11.24,3.78-2.45,2.52-3.67,5.83-3.67,9.92v125.98h-26.42Z"/>
      <path d="M1464.33,96.76v-20.72h82.56v20.72h-82.56ZM1546.89,194.45c-7.82,1.46-15.48,2.1-22.97,1.92-7.49-.18-14.2-1.57-20.12-4.17-5.92-2.59-10.42-6.71-13.49-12.33-2.71-5.12-4.13-10.34-4.28-15.68-.15-5.33-.22-11.37-.22-18.09V43.14h26.31v101.42c0,4.75.06,8.92.16,12.5.11,3.58.86,6.51,2.25,8.77,2.63,4.39,6.83,6.83,12.61,7.35,5.77.51,12.35.22,19.74-.88v22.15Z"/>
    </g>
    <path class="cls-1" d="M194.45,194.45c0-52.31,42.41-94.72,94.72-94.72s93.4,41.09,94.69,92.28c-1.31-103.5-85.6-187-189.42-187S5,89.82,5,194.45h189.45Z"/>
  </g>
</svg>